<?xml version="1.0" encoding="UTF-8" standalone="no"?>
<svg viewBox="0 0 274 111" version="1.1" xmlns="http://www.w3.org/2000/svg" xmlns:xlink="http://www.w3.org/1999/xlink">
    <defs>
        <linearGradient x1="50%" y1="0%" x2="50%" y2="100%" id="linearGradient-1">
            <stop stop-color="#D4D4D4" offset="0%"></stop>
            <stop stop-color="#737373" offset="100%"></stop>
        </linearGradient>
        <linearGradient x1="28.9251868%" y1="23.8228923%" x2="68.6495703%" y2="36.3434605%" id="linearGradient-2">
            <stop stop-color="#ECECEC" offset="0%"></stop>
            <stop stop-color="#737373" offset="100%"></stop>
        </linearGradient>
    </defs>
    <g id="Page-1" stroke="none" stroke-width="1" fill="none" fill-rule="evenodd">
        <g id="Artboard">
            <rect id="Rectangle" fill="#FFFFFF" x="11" y="18" width="33" height="33"></rect>
            <polygon id="Rectangle" fill="#FFFFFF" points="46 54 79 54 46 87"></polygon>
            <rect id="Rectangle" fill="#FFFFFF" x="11" y="54" width="33" height="33"></rect>
            <rect id="Rectangle" fill="#FFFFFF" x="46" y="18" width="33" height="33"></rect>
            <rect id="Rectangle-2" fill="#FFFFFF" x="46" y="85" width="221" height="2"></rect>
            <path d="M47.5429688,86.0732422 C47.5429688,86.0732422 57.9799805,65.768555 56.940918,57 C57.9799805,53.2475587 61.6708984,57.6259766 61.6708984,57.6259766 L47.5429688,86.0732422 Z" id="Path-3" fill="url(#linearGradient-1)"></path>
            <path d="M46.8642578,87.0529826 L71.9390473,60.716079 C71.9390473,60.716079 60.8080303,67.9753226 56.5697128,56.7880692 C53.8414525,74.039957 46.8642578,87.0529826 46.8642578,87.0529826 Z" id="Path-2" fill="url(#linearGradient-2)" transform="translate(59.401653, 71.920526) rotate(1.000000) translate(-59.401653, -71.920526) "></path>
            <path d="M99.744,21.208 L98.424,22.48 C97.4639952,21.5519954 96.4120057,20.8400025 95.268,20.344 C94.1239943,19.8479975 92.9440061,19.6 91.728,19.6 C90.5119939,19.6 89.2960061,19.9279967 88.08,20.584 C86.8639939,21.2400033 85.9160034,22.1239944 85.236,23.236 C84.5559966,24.3480056 84.216,25.5519935 84.216,26.848 C84.216,28.8640101 84.9719924,30.6199925 86.484,32.116 C87.9960076,33.6120075 89.8879886,34.36 92.16,34.36 C93.8880086,34.36 95.3719938,33.8760048 96.612,32.908 C97.8520062,31.9399952 98.5919988,30.6240083 98.832,28.96 L93.336,28.96 L93.336,27.304 L100.776,27.304 C100.728,30.0400137 99.9120079,32.1719924 98.328,33.7 C96.7439921,35.2280076 94.6720128,35.992 92.112,35.992 C89.1679853,35.992 86.8120088,35.088009 85.044,33.28 C83.2759912,31.471991 82.392,29.3480122 82.392,26.908 C82.392,24.4679878 83.2719912,22.3560089 85.032,20.572 C86.7920088,18.7879911 89.1039857,17.896 91.968,17.896 C94.8320143,17.896 97.4239884,18.999989 99.744,21.208 L99.744,21.208 Z M104.112,18.328 L107.544,18.328 C109.46401,18.328 110.775996,18.4119992 111.48,18.58 C112.184004,18.7480008 112.787997,19.0239981 113.292,19.408 C113.796003,19.7920019 114.191999,20.287997 114.48,20.896 C114.768001,21.504003 114.912,22.1759963 114.912,22.912 C114.912,24.3840074 114.392005,25.5399958 113.352,26.38 C112.311995,27.2200042 110.84001,27.6080003 108.936,27.544 L115.152,35.56 L113.016,35.56 L106.824,27.544 L105.84,27.544 L105.84,35.56 L104.112,35.56 L104.112,18.328 Z M105.84,20.008 L105.84,25.864 L108.816,25.864 C110.288007,25.8800001 111.371997,25.6520024 112.068,25.18 C112.764003,24.7079976 113.112,23.9600051 113.112,22.936 C113.112,21.9119949 112.768003,21.1680023 112.08,20.704 C111.391997,20.2399977 110.328007,20.008 108.888,20.008 L105.84,20.008 Z M118.608,18.328 L128.496,18.328 L128.496,20.032 L120.336,20.032 L120.336,25.408 L128.424,25.408 L128.424,27.088 L120.336,27.088 L120.336,33.856 L128.424,33.856 L128.424,35.56 L118.608,35.56 L118.608,18.328 Z M138.504,17.632 L146.544,35.56 L144.696,35.56 L141.984,29.68 L134.544,29.68 L131.856,35.56 L129.936,35.56 L138.072,17.632 L138.504,17.632 Z M138.288,21.448 L135.336,27.928 L141.216,27.928 L138.288,21.448 Z M147.504,20.008 L147.504,18.328 L156.96,18.328 L156.96,20.008 L153.12,20.008 L153.12,35.56 L151.368,35.56 L151.368,20.008 L147.504,20.008 Z M159.456,18.328 L169.344,18.328 L169.344,20.032 L161.184,20.032 L161.184,25.408 L169.272,25.408 L169.272,27.088 L161.184,27.088 L161.184,33.856 L169.272,33.856 L169.272,35.56 L159.456,35.56 L159.456,18.328 Z M172.392,18.328 L175.824,18.328 C177.74401,18.328 179.055996,18.4119992 179.76,18.58 C180.464004,18.7480008 181.067997,19.0239981 181.572,19.408 C182.076003,19.7920019 182.471999,20.287997 182.76,20.896 C183.048001,21.504003 183.192,22.1759963 183.192,22.912 C183.192,24.3840074 182.672005,25.5399958 181.632,26.38 C180.591995,27.2200042 179.12001,27.6080003 177.216,27.544 L183.432,35.56 L181.296,35.56 L175.104,27.544 L174.12,27.544 L174.12,35.56 L172.392,35.56 L172.392,18.328 Z M174.12,20.008 L174.12,25.864 L177.096,25.864 C178.568007,25.8800001 179.651997,25.6520024 180.348,25.18 C181.044003,24.7079976 181.392,23.9600051 181.392,22.936 C181.392,21.9119949 181.048003,21.1680023 180.36,20.704 C179.671997,20.2399977 178.608007,20.008 177.168,20.008 L174.12,20.008 Z M82.128,41.328 L83.904,41.328 L87.408,54.168 L92.352,41.328 L92.688,41.328 L97.584,54.168 L101.16,41.328 L102.912,41.328 L97.968,58.992 L97.632,58.992 L92.52,45.528 L87.312,58.992 L87,58.992 L82.128,41.328 Z M113.184,40.632 L121.224,58.56 L119.376,58.56 L116.664,52.68 L109.224,52.68 L106.536,58.56 L104.616,58.56 L112.752,40.632 L113.184,40.632 Z M112.968,44.448 L110.016,50.928 L115.896,50.928 L112.968,44.448 Z M122.112,55.344 L123.576,54.48 C124.600005,56.3680094 125.791993,57.312 127.152,57.312 C128.032004,57.312 128.783997,57.0320028 129.408,56.472 C130.032003,55.9119972 130.344,55.2160042 130.344,54.384 C130.344,53.7279967 130.080003,53.0640034 129.552,52.392 C129.023997,51.7199966 128.148006,50.9240046 126.924,50.004 C125.699994,49.0839954 124.876002,48.3960023 124.452,47.94 C124.027998,47.4839977 123.716001,46.9960026 123.516,46.476 C123.315999,45.9559974 123.216,45.4320026 123.216,44.904 C123.216,43.7839944 123.611996,42.8360039 124.404,42.06 C125.196004,41.2839961 126.191994,40.896 127.392,40.896 C128.336005,40.896 129.159996,41.1319976 129.864,41.604 C130.568004,42.0760024 131.247997,42.7759954 131.904,43.704 L130.512,44.784 C130.063998,44.175997 129.600002,43.672002 129.12,43.272 C128.639998,42.871998 128.052003,42.672 127.356,42.672 C126.659997,42.672 126.092002,42.8799979 125.652,43.296 C125.211998,43.7120021 124.992,44.2399968 124.992,44.88 C124.992,45.5200032 125.187998,46.0759976 125.58,46.548 C125.972002,47.0200024 126.859993,47.7679949 128.244,48.792 C129.628007,49.8160051 130.635997,50.7599957 131.268,51.624 C131.900003,52.4880043 132.216,53.3999952 132.216,54.36 C132.216,55.6080062 131.732005,56.6919954 130.764,57.612 C129.795995,58.5320046 128.672006,58.992 127.392,58.992 C125.135989,58.992 123.376006,57.7760122 122.112,55.344 L122.112,55.344 Z M135.816,41.328 L137.568,41.328 L137.568,48.552 L146.328,48.552 L146.328,41.328 L148.056,41.328 L148.056,58.56 L146.328,58.56 L146.328,50.232 L137.568,50.232 L137.568,58.56 L135.816,58.56 L135.816,41.328 Z M151.992,41.328 L153.72,41.328 L153.72,58.56 L151.992,58.56 L151.992,41.328 Z M157.68,58.56 L157.68,41.328 L158.064,41.328 L169.512,54.528 L169.512,41.328 L171.216,41.328 L171.216,58.56 L170.832,58.56 L159.456,45.528 L159.456,58.56 L157.68,58.56 Z M192.072,44.208 L190.752,45.48 C189.791995,44.5519954 188.740006,43.8400025 187.596,43.344 C186.451994,42.8479975 185.272006,42.6 184.056,42.6 C182.839994,42.6 181.624006,42.9279967 180.408,43.584 C179.191994,44.2400033 178.244003,45.1239944 177.564,46.236 C176.883997,47.3480056 176.544,48.5519935 176.544,49.848 C176.544,51.8640101 177.299992,53.6199925 178.812,55.116 C180.324008,56.6120075 182.215989,57.36 184.488,57.36 C186.216009,57.36 187.699994,56.8760048 188.94,55.908 C190.180006,54.9399952 190.919999,53.6240083 191.16,51.96 L185.664,51.96 L185.664,50.304 L193.104,50.304 C193.056,53.0400137 192.240008,55.1719924 190.656,56.7 C189.071992,58.2280076 187.000013,58.992 184.44,58.992 C181.495985,58.992 179.140009,58.088009 177.372,56.28 C175.603991,54.471991 174.72,52.3480122 174.72,49.908 C174.72,47.4679878 175.599991,45.3560089 177.36,43.572 C179.120009,41.7879911 181.431986,40.896 184.296,40.896 C187.160014,40.896 189.751988,41.999989 192.072,44.208 L192.072,44.208 Z M194.64,43.008 L194.64,41.328 L204.096,41.328 L204.096,43.008 L200.256,43.008 L200.256,58.56 L198.504,58.56 L198.504,43.008 L194.64,43.008 Z M205.824,50.016 C205.824,48.3519917 206.223996,46.816007 207.024,45.408 C207.824004,43.999993 208.919993,42.896004 210.312,42.096 C211.704007,41.295996 213.219992,40.896 214.86,40.896 C216.500008,40.896 218.027993,41.291996 219.444,42.084 C220.860007,42.876004 221.971996,43.971993 222.78,45.372 C223.588004,46.772007 223.992,48.2919918 223.992,49.932 C223.992,51.5720082 223.592004,53.091993 222.792,54.492 C221.991996,55.892007 220.892007,56.991996 219.492,57.792 C218.091993,58.592004 216.572008,58.992 214.932,58.992 C213.291992,58.992 211.768007,58.596004 210.36,57.804 C208.951993,57.011996 207.844004,55.920007 207.036,54.528 C206.227996,53.135993 205.824,51.6320081 205.824,50.016 L205.824,50.016 Z M222.192,49.944 C222.192,47.8799897 221.476007,46.1360071 220.044,44.712 C218.611993,43.2879929 216.88801,42.576 214.872,42.576 C212.80799,42.576 211.084007,43.2919928 209.7,44.724 C208.315993,46.1560072 207.624,47.8999897 207.624,49.956 C207.624,52.0120103 208.335993,53.7519929 209.76,55.176 C211.184007,56.6000071 212.90399,57.312 214.92,57.312 C216.93601,57.312 218.651993,56.616007 220.068,55.224 C221.484007,53.831993 222.192,52.0720106 222.192,49.944 L222.192,49.944 Z M227.448,58.56 L227.448,41.328 L227.832,41.328 L239.28,54.528 L239.28,41.328 L240.984,41.328 L240.984,58.56 L240.6,58.56 L229.224,45.528 L229.224,58.56 L227.448,58.56 Z M83.088,64.328 L86.52,64.328 C88.5520102,64.328 89.8799969,64.4079992 90.504,64.568 C91.1280031,64.7280008 91.6999974,65.007998 92.22,65.408 C92.7400026,65.808002 93.1439986,66.307997 93.432,66.908 C93.7200014,67.508003 93.864,68.1759963 93.864,68.912 C93.864,70.0960059 93.5440032,71.0639962 92.904,71.816 C92.2639968,72.5680038 91.4600048,73.043999 90.492,73.244 C89.5239952,73.444001 88.04001,73.544 86.04,73.544 L84.816,73.544 L84.816,81.56 L83.088,81.56 L83.088,64.328 Z M84.816,66.008 L84.816,71.888 L87.72,71.888 C89.4640087,71.9200002 90.6239971,71.636003 91.2,71.036 C91.7760029,70.435997 92.064,69.7280041 92.064,68.912 C92.064,66.9759903 90.664014,66.008 87.864,66.008 L84.816,66.008 Z M97.368,64.328 L99.096,64.328 L99.096,74.72 C99.096,75.7920054 99.1239997,76.5999973 99.18,77.144 C99.2360003,77.6880027 99.4279984,78.2119975 99.756,78.716 C100.084002,79.2200025 100.543997,79.6199985 101.136,79.916 C101.728003,80.2120015 102.363997,80.36 103.044,80.36 C103.724003,80.36 104.319997,80.2360012 104.832,79.988 C105.344003,79.7399988 105.775998,79.3920022 106.128,78.944 C106.480002,78.4959978 106.723999,78.0040027 106.86,77.468 C106.996001,76.9319973 107.064,76.0160065 107.064,74.72 L107.064,64.328 L108.768,64.328 L108.768,74.72 C108.768,76.4640087 108.592002,77.7999954 108.24,78.728 C107.887998,79.6560046 107.268004,80.4319969 106.38,81.056 C105.491996,81.6800031 104.448006,81.992 103.248,81.992 C102.287995,81.992 101.424004,81.8360016 100.656,81.524 C99.8879962,81.2119984 99.2480026,80.7760028 98.736,80.216 C98.2239974,79.6559972 97.868001,79.0320034 97.668,78.344 C97.467999,77.6559966 97.368,76.4480086 97.368,74.72 L97.368,64.328 Z M113.064,64.328 L116.472,64.328 C118.280009,64.328 119.651995,64.6919964 120.588,65.42 C121.524005,66.1480036 121.992,67.1919932 121.992,68.552 C121.992,69.3040038 121.804002,69.9959968 121.428,70.628 C121.051998,71.2600032 120.504004,71.7679981 119.784,72.152 C120.968006,72.5360019 121.867997,73.1119962 122.484,73.88 C123.100003,74.6480038 123.408,75.5599947 123.408,76.616 C123.408,78.0400071 122.888005,79.2199953 121.848,80.156 C120.807995,81.0920047 119.464008,81.56 117.816,81.56 L113.064,81.56 L113.064,64.328 Z M114.768,66.008 L114.768,71.528 L115.752,71.528 C117.256008,71.528 118.375996,71.2880024 119.112,70.808 C119.848004,70.3279976 120.216,69.5760051 120.216,68.552 C120.216,66.8559915 119.064012,66.008 116.76,66.008 L114.768,66.008 Z M114.768,73.256 L114.768,79.88 L116.904,79.88 C118.136006,79.88 119.043997,79.7560012 119.628,79.508 C120.212003,79.2599988 120.687998,78.8760026 121.056,78.356 C121.424002,77.8359974 121.608,77.3040027 121.608,76.76 C121.608,76.2159973 121.504001,75.7360021 121.296,75.32 C121.087999,74.9039979 120.780002,74.5360016 120.372,74.216 C119.963998,73.8959984 119.476003,73.6560008 118.908,73.496 C118.339997,73.3359992 117.280008,73.256 115.728,73.256 L114.768,73.256 Z M126.792,64.328 L128.544,64.328 L128.544,79.904 L135.168,79.904 L135.168,81.56 L126.792,81.56 L126.792,64.328 Z M137.64,64.328 L139.368,64.328 L139.368,81.56 L137.64,81.56 L137.64,64.328 Z M141.528,78.344 L142.992,77.48 C144.016005,79.3680094 145.207993,80.312 146.568,80.312 C147.448004,80.312 148.199997,80.0320028 148.824,79.472 C149.448003,78.9119972 149.76,78.2160042 149.76,77.384 C149.76,76.7279967 149.496003,76.0640034 148.968,75.392 C148.439997,74.7199966 147.564006,73.9240046 146.34,73.004 C145.115994,72.0839954 144.292002,71.3960023 143.868,70.94 C143.443998,70.4839977 143.132001,69.9960026 142.932,69.476 C142.731999,68.9559974 142.632,68.4320026 142.632,67.904 C142.632,66.7839944 143.027996,65.8360039 143.82,65.06 C144.612004,64.2839961 145.607994,63.896 146.808,63.896 C147.752005,63.896 148.575996,64.1319976 149.28,64.604 C149.984004,65.0760024 150.663997,65.7759954 151.32,66.704 L149.928,67.784 C149.479998,67.175997 149.016002,66.672002 148.536,66.272 C148.055998,65.871998 147.468003,65.672 146.772,65.672 C146.075997,65.672 145.508002,65.8799979 145.068,66.296 C144.627998,66.7120021 144.408,67.2399968 144.408,67.88 C144.408,68.5200032 144.603998,69.0759976 144.996,69.548 C145.388002,70.0200024 146.275993,70.7679949 147.66,71.792 C149.044007,72.8160051 150.051997,73.7599957 150.684,74.624 C151.316003,75.4880043 151.632,76.3999952 151.632,77.36 C151.632,78.6080062 151.148005,79.6919954 150.18,80.612 C149.211995,81.5320046 148.088006,81.992 146.808,81.992 C144.551989,81.992 142.792006,80.7760122 141.528,78.344 L141.528,78.344 Z M155.232,64.328 L156.984,64.328 L156.984,71.552 L165.744,71.552 L165.744,64.328 L167.472,64.328 L167.472,81.56 L165.744,81.56 L165.744,73.232 L156.984,73.232 L156.984,81.56 L155.232,81.56 L155.232,64.328 Z M171.408,64.328 L173.136,64.328 L173.136,81.56 L171.408,81.56 L171.408,64.328 Z M177.096,81.56 L177.096,64.328 L177.48,64.328 L188.928,77.528 L188.928,64.328 L190.632,64.328 L190.632,81.56 L190.248,81.56 L178.872,68.528 L178.872,81.56 L177.096,81.56 Z M211.488,67.208 L210.168,68.48 C209.207995,67.5519954 208.156006,66.8400025 207.012,66.344 C205.867994,65.8479975 204.688006,65.6 203.472,65.6 C202.255994,65.6 201.040006,65.9279967 199.824,66.584 C198.607994,67.2400033 197.660003,68.1239944 196.98,69.236 C196.299997,70.3480056 195.96,71.5519935 195.96,72.848 C195.96,74.8640101 196.715992,76.6199925 198.228,78.116 C199.740008,79.6120075 201.631989,80.36 203.904,80.36 C205.632009,80.36 207.115994,79.8760048 208.356,78.908 C209.596006,77.9399952 210.335999,76.6240083 210.576,74.96 L205.08,74.96 L205.08,73.304 L212.52,73.304 C212.472,76.0400137 211.656008,78.1719924 210.072,79.7 C208.487992,81.2280076 206.416013,81.992 203.856,81.992 C200.911985,81.992 198.556009,81.088009 196.788,79.28 C195.019991,77.471991 194.136,75.3480122 194.136,72.908 C194.136,70.4679878 195.015991,68.3560089 196.776,66.572 C198.536009,64.7879911 200.847986,63.896 203.712,63.896 C206.576014,63.896 209.167988,64.999989 211.488,67.208 L211.488,67.208 Z M217.128,78.392 L218.712,79.136 L216.336,83.576 L215.16,83.072 L217.128,78.392 Z M228.408,64.328 L230.16,64.328 L230.16,79.904 L236.784,79.904 L236.784,81.56 L228.408,81.56 L228.408,64.328 Z M239.496,64.328 L241.248,64.328 L241.248,79.904 L247.872,79.904 L247.872,81.56 L239.496,81.56 L239.496,64.328 Z M266.64,67.52 L265.296,68.552 C263.695992,66.5679901 261.640013,65.576 259.128,65.576 C257.07999,65.576 255.316007,66.2959928 253.836,67.736 C252.355993,69.1760072 251.616,70.9399896 251.616,73.028 C251.616,75.1160104 252.339993,76.859993 253.788,78.26 C255.236007,79.660007 257.047989,80.36 259.224,80.36 C261.656012,80.36 263.679992,79.4160094 265.296,77.528 L266.64,78.56 C265.791996,79.6800056 264.720006,80.5319971 263.424,81.116 C262.127994,81.7000029 260.696008,81.992 259.128,81.992 C256.391986,81.992 254.152009,81.1280086 252.408,79.4 C250.663991,77.6719914 249.792,75.4880132 249.792,72.848 C249.792,71.2159918 250.195996,69.7080069 251.004,68.324 C251.812004,66.9399931 252.931993,65.8560039 254.364,65.072 C255.796007,64.2879961 257.335992,63.896 258.984,63.896 C260.632008,63.896 262.111993,64.2079969 263.424,64.832 C264.736007,65.4560031 265.807996,66.3519942 266.64,67.52 L266.64,67.52 Z" id="GREATER-WASHINGTON-P" fill="#FFFFFF"></path>
            <path d="M84.044,90.664 L84.92,90.664 L84.92,98.452 L88.232,98.452 L88.232,99.28 L84.044,99.28 L84.044,90.664 Z M94.82,97.216 L95.516,97.576 C94.8279966,98.8560064 93.8120067,99.496 92.468,99.496 C91.5079952,99.496 90.7160031,99.1660033 90.092,98.506 C89.4679969,97.8459967 89.156,97.0520046 89.156,96.124 C89.156,95.1959954 89.4699969,94.4000033 90.098,93.736 C90.7260031,93.0719967 91.5019954,92.74 92.426,92.74 C93.3500046,92.74 94.1259969,93.0479969 94.754,93.664 C95.3820031,94.2800031 95.7079999,95.1199947 95.732,96.184 L89.996,96.184 C90.0200001,96.9520038 90.2619977,97.5699977 90.722,98.038 C91.1820023,98.5060023 91.7399967,98.74 92.396,98.74 C93.4760054,98.74 94.2839973,98.2320051 94.82,97.216 L94.82,97.216 Z M94.82,95.476 C94.7079994,94.867997 94.4280022,94.3920017 93.98,94.048 C93.5319978,93.7039983 93.0160029,93.532 92.432,93.532 C91.231994,93.532 90.4480018,94.1799935 90.08,95.476 L94.82,95.476 Z M98.804,98.272 C98.804,98.4880011 98.8319997,98.6159998 98.888,98.656 C98.9440003,98.6960002 99.0879988,98.716 99.32,98.716 L99.812,98.716 L99.812,99.412 C99.4759983,99.4680003 99.212001,99.496 99.02,99.496 C98.6599982,99.496 98.3960008,99.4080009 98.228,99.232 C98.0599992,99.0559991 97.976,98.7800019 97.976,98.404 L97.976,93.604 L96.848,93.604 L96.848,92.908 L97.976,92.908 L97.976,90.448 L98.804,90.448 L98.804,92.908 L100.1,92.908 L100.1,93.604 L98.804,93.604 L98.804,98.272 Z M104.492,90.664 L105.356,90.664 L105.356,95.86 C105.356,96.3960027 105.37,96.7999986 105.398,97.072 C105.426,97.3440014 105.521999,97.6059987 105.686,97.858 C105.850001,98.1100013 106.079999,98.3099993 106.376,98.458 C106.672001,98.6060007 106.989998,98.68 107.33,98.68 C107.670002,98.68 107.967999,98.6180006 108.224,98.494 C108.480001,98.3699994 108.695999,98.1960011 108.872,97.972 C109.048001,97.7479989 109.17,97.5020013 109.238,97.234 C109.306,96.9659987 109.34,96.5080032 109.34,95.86 L109.34,90.664 L110.192,90.664 L110.192,95.86 C110.192,96.7320044 110.104001,97.3999977 109.928,97.864 C109.751999,98.3280023 109.442002,98.7159984 108.998,99.028 C108.553998,99.3400016 108.032003,99.496 107.432,99.496 C106.951998,99.496 106.520002,99.4180008 106.136,99.262 C105.751998,99.1059992 105.432001,98.8880014 105.176,98.608 C104.919999,98.3279986 104.742001,98.0160017 104.642,97.672 C104.541999,97.3279983 104.492,96.7240043 104.492,95.86 L104.492,90.664 Z M115.388,93.604 L114.86,94.144 C114.419998,93.7199979 113.992002,93.508 113.576,93.508 C113.303999,93.508 113.076001,93.5939991 112.892,93.766 C112.707999,93.9380009 112.616,94.1499987 112.616,94.402 C112.616,94.6540013 112.713999,94.8699991 112.91,95.05 C113.106001,95.2300009 113.443998,95.4459987 113.924,95.698 C114.404002,95.9500013 114.769999,96.2219985 115.022,96.514 C115.274001,96.8060015 115.4,97.1639979 115.4,97.588 C115.4,98.1240027 115.214002,98.5759982 114.842,98.944 C114.469998,99.3120018 114.012003,99.496 113.468,99.496 C113.107998,99.496 112.762002,99.4160008 112.43,99.256 C112.097998,99.0959992 111.816001,98.8720014 111.584,98.584 L112.1,98.008 C112.524002,98.4800024 112.967998,98.716 113.432,98.716 C113.760002,98.716 114.039999,98.6080011 114.272,98.392 C114.504001,98.1759989 114.62,97.9220015 114.62,97.63 C114.62,97.3379985 114.518001,97.0980009 114.314,96.91 C114.109999,96.7219991 113.770002,96.5080012 113.294,96.268 C112.817998,96.0279988 112.462001,95.7660014 112.226,95.482 C111.989999,95.1979986 111.872,94.8300023 111.872,94.378 C111.872,93.9259977 112.037998,93.5400016 112.37,93.22 C112.702002,92.8999984 113.141997,92.74 113.69,92.74 C114.238003,92.74 114.803997,93.0279971 115.388,93.604 L115.388,93.604 Z M119.996,90.664 L121.7,90.664 C122.604005,90.664 123.289998,90.8459982 123.758,91.21 C124.226002,91.5740018 124.46,92.0959966 124.46,92.776 C124.46,93.1520019 124.366001,93.4979984 124.178,93.814 C123.989999,94.1300016 123.716002,94.383999 123.356,94.576 C123.948003,94.768001 124.397998,95.0559981 124.706,95.44 C125.014002,95.8240019 125.168,96.2799974 125.168,96.808 C125.168,97.5200036 124.908003,98.1099977 124.388,98.578 C123.867997,99.0460023 123.196004,99.28 122.372,99.28 L119.996,99.28 L119.996,90.664 Z M120.848,91.504 L120.848,94.264 L121.34,94.264 C122.092004,94.264 122.651998,94.1440012 123.02,93.904 C123.388002,93.6639988 123.572,93.2880026 123.572,92.776 C123.572,91.9279958 122.996006,91.504 121.844,91.504 L120.848,91.504 Z M120.848,95.128 L120.848,98.44 L121.916,98.44 C122.532003,98.44 122.985999,98.3780006 123.278,98.254 C123.570001,98.1299994 123.807999,97.9380013 123.992,97.678 C124.176001,97.4179987 124.268,97.1520014 124.268,96.88 C124.268,96.6079986 124.216001,96.368001 124.112,96.16 C124.007999,95.951999 123.854001,95.7680008 123.65,95.608 C123.445999,95.4479992 123.202001,95.3280004 122.918,95.248 C122.633999,95.1679996 122.104004,95.128 121.328,95.128 L120.848,95.128 Z M132.092,97.216 L132.788,97.576 C132.099997,98.8560064 131.084007,99.496 129.74,99.496 C128.779995,99.496 127.988003,99.1660033 127.364,98.506 C126.739997,97.8459967 126.428,97.0520046 126.428,96.124 C126.428,95.1959954 126.741997,94.4000033 127.37,93.736 C127.998003,93.0719967 128.773995,92.74 129.698,92.74 C130.622005,92.74 131.397997,93.0479969 132.026,93.664 C132.654003,94.2800031 132.98,95.1199947 133.004,96.184 L127.268,96.184 C127.292,96.9520038 127.533998,97.5699977 127.994,98.038 C128.454002,98.5060023 129.011997,98.74 129.668,98.74 C130.748005,98.74 131.555997,98.2320051 132.092,97.216 L132.092,97.216 Z M132.092,95.476 C131.979999,94.867997 131.700002,94.3920017 131.252,94.048 C130.803998,93.7039983 130.288003,93.532 129.704,93.532 C128.503994,93.532 127.720002,94.1799935 127.352,95.476 L132.092,95.476 Z M136.988,90.664 L137.984,90.664 L140.18,94.216 L142.352,90.664 L143.348,90.664 L140.612,95.164 L140.612,99.28 L139.772,99.28 L139.772,95.164 L136.988,90.664 Z M144.332,96.136 C144.332,95.1999953 144.653997,94.4000033 145.298,93.736 C145.942003,93.0719967 146.725995,92.74 147.65,92.74 C148.574005,92.74 149.357997,93.0719967 150.002,93.736 C150.646003,94.4000033 150.968,95.1959954 150.968,96.124 C150.968,97.0520046 150.650003,97.8459967 150.014,98.506 C149.377997,99.1660033 148.592005,99.496 147.656,99.496 C146.719995,99.496 145.932003,99.1660033 145.292,98.506 C144.651997,97.8459967 144.332,97.0560046 144.332,96.136 L144.332,96.136 Z M150.14,96.148 C150.14,95.4439965 149.894002,94.8340026 149.402,94.318 C148.909998,93.8019974 148.326003,93.544 147.65,93.544 C146.973997,93.544 146.392002,93.8019974 145.904,94.318 C145.415998,94.8340026 145.172,95.4479964 145.172,96.16 C145.172,96.8720036 145.407998,97.4759975 145.88,97.972 C146.352002,98.4680025 146.937996,98.716 147.638,98.716 C148.338004,98.716 148.929998,98.4660025 149.414,97.966 C149.898002,97.4659975 150.14,96.8600036 150.14,96.148 L150.14,96.148 Z M157.964,99.28 L157.136,99.28 L157.136,98.14 C156.479997,99.0120044 155.684005,99.448 154.748,99.448 C154.267998,99.448 153.836002,99.3180013 153.452,99.058 C153.067998,98.7979987 152.796001,98.4580021 152.636,98.038 C152.475999,97.6179979 152.396,97.0000041 152.396,96.184 L152.396,92.908 L153.212,92.908 L153.212,95.944 C153.212,96.6880037 153.246,97.1919987 153.314,97.456 C153.382,97.7200013 153.485999,97.9439991 153.626,98.128 C153.766001,98.3120009 153.943999,98.4519995 154.16,98.548 C154.376001,98.6440005 154.637998,98.692 154.946,98.692 C155.254002,98.692 155.555999,98.6160008 155.852,98.464 C156.148001,98.3119992 156.399999,98.1000014 156.608,97.828 C156.816001,97.5559986 156.956,97.2760014 157.028,96.988 C157.1,96.6999986 157.136,96.1200044 157.136,95.248 L157.136,92.908 L157.964,92.908 L157.964,99.28 Z M159.476,92.908 L160.316,92.908 L160.316,93.832 C160.540001,93.4559981 160.757999,93.1800009 160.97,93.004 C161.182001,92.8279991 161.417999,92.74 161.678,92.74 C161.938001,92.74 162.199999,92.8119993 162.464,92.956 L162.032,93.652 C161.911999,93.5799996 161.788001,93.544 161.66,93.544 C161.411999,93.544 161.178001,93.6719987 160.958,93.928 C160.737999,94.1840013 160.576001,94.513998 160.472,94.918 C160.367999,95.322002 160.316,96.0559947 160.316,97.12 L160.316,99.28 L159.476,99.28 L159.476,92.908 Z M174.86,92.104 L174.2,92.74 C173.719998,92.2759977 173.194003,91.9200012 172.622,91.672 C172.049997,91.4239988 171.460003,91.3 170.852,91.3 C170.243997,91.3 169.636003,91.4639984 169.028,91.792 C168.419997,92.1200016 167.946002,92.5619972 167.606,93.118 C167.265998,93.6740028 167.096,94.2759968 167.096,94.924 C167.096,95.932005 167.473996,96.8099963 168.23,97.558 C168.986004,98.3060037 169.931994,98.68 171.068,98.68 C171.932004,98.68 172.673997,98.4380024 173.294,97.954 C173.914003,97.4699976 174.283999,96.8120042 174.404,95.98 L171.656,95.98 L171.656,95.152 L175.376,95.152 C175.352,96.5200068 174.944004,97.5859962 174.152,98.35 C173.359996,99.1140038 172.324006,99.496 171.044,99.496 C169.571993,99.496 168.394004,99.0440045 167.51,98.14 C166.625996,97.2359955 166.184,96.1740061 166.184,94.954 C166.184,93.7339939 166.623996,92.6780045 167.504,91.786 C168.384004,90.8939955 169.539993,90.448 170.972,90.448 C172.404007,90.448 173.699994,90.9999945 174.86,92.104 L174.86,92.104 Z M182.336,99.28 L181.508,99.28 L181.508,98.14 C180.851997,99.0120044 180.056005,99.448 179.12,99.448 C178.639998,99.448 178.208002,99.3180013 177.824,99.058 C177.439998,98.7979987 177.168001,98.4580021 177.008,98.038 C176.847999,97.6179979 176.768,97.0000041 176.768,96.184 L176.768,92.908 L177.584,92.908 L177.584,95.944 C177.584,96.6880037 177.618,97.1919987 177.686,97.456 C177.754,97.7200013 177.857999,97.9439991 177.998,98.128 C178.138001,98.3120009 178.315999,98.4519995 178.532,98.548 C178.748001,98.6440005 179.009998,98.692 179.318,98.692 C179.626002,98.692 179.927999,98.6160008 180.224,98.464 C180.520001,98.3119992 180.771999,98.1000014 180.98,97.828 C181.188001,97.5559986 181.328,97.2760014 181.4,96.988 C181.472,96.6999986 181.508,96.1200044 181.508,95.248 L181.508,92.908 L182.336,92.908 L182.336,99.28 Z M183.776,91.132 C183.776,90.9479991 183.841999,90.7880007 183.974,90.652 C184.106001,90.5159993 184.265999,90.448 184.454,90.448 C184.642001,90.448 184.801999,90.5139993 184.934,90.646 C185.066001,90.7780007 185.132,90.9379991 185.132,91.126 C185.132,91.3140009 185.066001,91.4739993 184.934,91.606 C184.801999,91.7380007 184.642001,91.804 184.454,91.804 C184.265999,91.804 184.106001,91.7360007 183.974,91.6 C183.841999,91.4639993 183.776,91.3080009 183.776,91.132 L183.776,91.132 Z M184.04,92.908 L184.868,92.908 L184.868,99.28 L184.04,99.28 L184.04,92.908 Z M192.92,90.448 L192.92,99.28 L192.116,99.28 L192.116,98.188 C191.387996,99.0600044 190.554005,99.496 189.614,99.496 C188.673995,99.496 187.884003,99.1640033 187.244,98.5 C186.603997,97.8359967 186.284,97.0400046 186.284,96.112 C186.284,95.1839954 186.607997,94.3900033 187.256,93.73 C187.904003,93.0699967 188.679995,92.74 189.584,92.74 C190.624005,92.74 191.467997,93.1839956 192.116,94.072 L192.116,90.448 L192.92,90.448 Z M192.164,96.136 C192.164,95.4079964 191.924002,94.7920025 191.444,94.288 C190.963998,93.7839975 190.364004,93.532 189.644,93.532 C188.923996,93.532 188.322002,93.7899974 187.838,94.306 C187.353998,94.8220026 187.112,95.4299965 187.112,96.13 C187.112,96.8300035 187.359998,97.4399974 187.856,97.96 C188.352002,98.4800026 188.937997,98.74 189.614,98.74 C190.290003,98.74 190.883997,98.4940025 191.396,98.002 C191.908003,97.5099975 192.164,96.8880038 192.164,96.136 L192.164,96.136 Z M200.144,97.216 L200.84,97.576 C200.151997,98.8560064 199.136007,99.496 197.792,99.496 C196.831995,99.496 196.040003,99.1660033 195.416,98.506 C194.791997,97.8459967 194.48,97.0520046 194.48,96.124 C194.48,95.1959954 194.793997,94.4000033 195.422,93.736 C196.050003,93.0719967 196.825995,92.74 197.75,92.74 C198.674005,92.74 199.449997,93.0479969 200.078,93.664 C200.706003,94.2800031 201.032,95.1199947 201.056,96.184 L195.32,96.184 C195.344,96.9520038 195.585998,97.5699977 196.046,98.038 C196.506002,98.5060023 197.063997,98.74 197.72,98.74 C198.800005,98.74 199.607997,98.2320051 200.144,97.216 L200.144,97.216 Z M200.144,95.476 C200.031999,94.867997 199.752002,94.3920017 199.304,94.048 C198.855998,93.7039983 198.340003,93.532 197.756,93.532 C196.555994,93.532 195.772002,94.1799935 195.404,95.476 L200.144,95.476 Z" id="Let-Us-Be-Your-Guide" fill="#FFFFFF"></path>
        </g>
    </g>
</svg>