<?xml version="1.0" standalone="no"?>
<!DOCTYPE svg PUBLIC "-//W3C//DTD SVG 20010904//EN"
 "http://www.w3.org/TR/2001/REC-SVG-20010904/DTD/svg10.dtd">
<svg version="1.0" xmlns="http://www.w3.org/2000/svg"
 width="552.000000pt" height="552.000000pt" viewBox="0 0 552.000000 552.000000"
 preserveAspectRatio="xMidYMid meet">
<metadata>
Created by potrace 1.11, written by Peter Selinger 2001-2013
</metadata>
<g transform="translate(0.000000,552.000000) scale(0.100000,-0.100000)"
fill="#000000" stroke="none">
<path d="M40 4201 l0 -1319 35 -1 c19 -1 43 -2 53 -2 50 0 178 0 187 0 6 0 33
0 60 0 28 0 59 1 70 0 11 0 56 0 100 0 44 0 85 0 90 0 6 0 33 0 60 0 28 0 59
1 70 0 11 0 56 0 100 0 44 0 85 0 90 0 6 0 33 0 60 0 28 0 59 1 70 0 11 0 56
0 100 0 44 0 85 0 90 0 6 0 33 0 60 0 28 0 59 1 70 0 11 0 56 0 100 0 44 0 85
0 90 0 6 0 33 0 60 0 28 0 59 1 70 0 11 0 56 0 100 0 44 0 85 0 90 0 6 0 33 0
60 0 28 0 59 1 70 0 11 0 56 0 100 0 44 0 85 0 90 0 6 0 33 0 60 0 28 0 59 1
70 0 11 0 56 0 100 0 82 0 87 0 167 1 l48 0 1 178 c0 97 0 184 0 192 0 8 0 31
0 50 -1 19 -1 42 0 50 0 8 1 94 0 190 0 96 0 182 0 190 0 8 0 31 0 50 -1 19
-1 42 0 50 0 8 1 94 0 190 0 96 0 182 0 190 0 8 0 31 0 50 -1 19 -1 42 0 50 0
8 1 94 0 190 0 96 0 182 0 190 0 8 0 31 0 50 -1 19 -1 42 0 50 0 8 1 94 0 190
0 96 0 182 0 190 0 8 0 31 -1 50 -2 19 -1 40 0 45 1 6 2 65 1 133 l-1 122
-1320 0 -1320 0 0 -1319z"/>
<path d="M2841 5213 c-1 -170 -1 -405 0 -523 0 -118 0 -334 0 -480 -1 -146 -1
-362 0 -480 0 -118 0 -336 -1 -485 0 -148 -1 -277 0 -285 0 -8 0 -29 0 -47
l-1 -32 68 -1 c92 -2 135 0 144 6 4 2 10 0 14 -6 4 -6 10 -8 15 -5 5 3 48 5
97 5 48 -1 106 0 128 1 22 1 47 1 55 1 108 -3 161 -2 169 2 5 4 12 2 16 -4 4
-6 10 -8 15 -5 5 3 48 5 97 5 48 -1 106 0 128 1 22 1 47 1 55 1 108 -3 161 -2
169 2 5 4 12 2 16 -4 4 -6 10 -8 15 -5 5 3 48 5 97 5 48 -1 106 0 128 1 22 1
47 1 55 1 108 -3 161 -2 169 2 5 4 12 2 16 -4 4 -6 10 -8 15 -5 5 3 48 5 97 5
48 -1 106 0 128 1 22 1 47 1 55 1 108 -3 161 -2 169 2 5 4 12 2 16 -4 4 -6 10
-8 15 -5 5 3 48 5 97 5 48 -1 106 0 128 1 22 1 47 1 55 1 13 0 123 -1 183 -1
16 0 17 70 17 1320 l0 1319 -1320 0 -1319 0 0 -307z"/>
<path d="M63 2642 l-23 -3 0 -1320 0 -1319 1319 0 1320 0 0 28 c1 15 2 34 2
42 0 8 1 51 0 95 0 44 0 89 0 100 0 11 0 110 0 220 0 110 0 205 0 210 0 6 0
26 0 45 -1 19 -1 42 0 50 0 8 1 94 0 190 0 96 0 182 0 190 0 8 0 31 0 50 -1
19 -1 42 0 50 0 8 1 94 0 190 0 96 0 182 0 190 0 8 0 31 0 50 -1 19 -1 42 0
50 1 31 0 376 -1 405 -1 17 -2 37 -1 45 2 75 -1 385 -4 389 -3 2 -1 9 5 15 13
17 -3 36 -31 36 -28 1 -187 1 -209 1 -61 -2 -104 0 -111 5 -5 3 -9 1 -9 -3 0
-5 -25 -6 -56 -3 -30 3 -57 3 -59 -1 -3 -3 -23 -3 -45 1 -22 4 -40 5 -40 1 0
-3 -24 -5 -52 -3 -29 1 -57 3 -63 3 -9 1 -136 0 -200 -1 -76 -1 -108 1 -116 6
-5 3 -9 1 -9 -3 0 -5 -25 -6 -56 -3 -30 3 -57 3 -59 -1 -3 -3 -23 -3 -45 1
-22 4 -40 5 -40 1 0 -3 -24 -5 -52 -3 -29 1 -57 3 -63 3 -9 1 -136 0 -200 -1
-76 -1 -108 1 -116 6 -5 3 -9 1 -9 -3 0 -5 -25 -6 -56 -3 -30 3 -57 3 -59 -1
-3 -3 -23 -3 -45 1 -22 4 -40 5 -40 1 0 -3 -24 -5 -52 -3 -29 1 -57 3 -63 3
-9 1 -136 0 -200 -1 -76 -1 -108 1 -116 6 -5 3 -9 1 -9 -3 0 -5 -24 -6 -53 -3
-29 3 -64 3 -78 -1 -13 -3 -33 -3 -44 1 -11 4 -31 4 -45 0 -14 -3 -41 -4 -60
0 -19 3 -45 4 -57 2z"/>
<path d="M2875 2640 c-3 -5 -12 -7 -20 -3 -13 4 -15 -16 -15 -138 1 -468 1
-610 1 -849 -1 -146 -1 -362 0 -480 0 -118 0 -336 -1 -485 0 -148 -1 -277 -1
-285 0 -8 0 -102 1 -208 l0 -193 30 31 c33 34 45 38 36 13 -4 -10 127 118 291
284 164 166 503 510 755 765 251 255 572 582 715 727 142 145 381 387 531 537
149 151 272 277 272 280 0 2 -12 4 -27 4 -33 -1 -231 -1 -253 -1 -8 0 -62 0
-120 0 -58 0 -112 0 -120 0 -33 2 -84 0 -88 -4 -2 -2 -16 0 -31 5 -16 4 -47 4
-70 0 -22 -4 -41 -4 -41 0 0 4 -18 4 -40 0 -22 -4 -40 -4 -40 0 0 4 -18 4 -40
0 -23 -4 -40 -3 -40 2 0 5 -4 6 -10 3 -9 -5 -72 -7 -229 -5 -35 1 -65 -1 -68
-4 -3 -3 -15 -1 -27 3 -11 5 -30 5 -40 1 -11 -3 -39 -3 -63 0 -23 4 -43 4 -43
1 0 -7 -99 -6 -106 2 -3 2 -19 2 -37 -2 -18 -4 -47 -4 -64 0 -18 3 -51 3 -73
-1 -22 -4 -40 -4 -40 0 0 4 -18 4 -40 0 -22 -4 -40 -4 -40 0 0 4 -18 4 -40 0
-23 -4 -40 -3 -40 2 0 5 -4 7 -10 3 -5 -3 -37 -6 -72 -6 -71 0 -212 0 -243 0
-11 0 -67 0 -125 0 -58 0 -112 0 -120 0 -33 2 -84 0 -88 -4 -2 -2 -17 1 -33 5
-16 5 -31 5 -34 0z"/>
</g>
</svg>
